<?xml version="1.0" standalone="no"?>
<!DOCTYPE svg PUBLIC "-//W3C//DTD SVG 20010904//EN"
 "http://www.w3.org/TR/2001/REC-SVG-20010904/DTD/svg10.dtd">
<svg version="1.0" xmlns="http://www.w3.org/2000/svg"
 width="512.000000pt" height="512.000000pt" viewBox="0 0 512.000000 512.000000"
 preserveAspectRatio="xMidYMid meet">

<g transform="translate(0.000000,512.000000) scale(0.100000,-0.100000)"
fill="#000000" stroke="none">
<path d="M1605 4313 c-67 -15 -128 -41 -187 -80 -60 -39 -119 -108 -624 -726
-410 -502 -565 -699 -587 -744 -59 -128 -59 -278 0 -406 22 -45 177 -242 587
-744 598 -732 595 -729 734 -785 l57 -23 1460 -3 c1057 -2 1477 0 1520 8 189
36 345 189 384 378 16 75 16 2669 0 2744 -37 177 -176 325 -348 370 -61 16
-177 17 -1521 16 -800 0 -1464 -2 -1475 -5z m2945 -335 c33 -17 51 -35 68 -68
l22 -44 0 -1306 0 -1306 -22 -44 c-17 -33 -35 -51 -68 -67 l-44 -23 -1427 0
-1426 0 -41 23 c-31 17 -164 173 -572 672 -292 358 -538 666 -547 685 -18 40
-13 108 10 142 8 13 252 313 542 668 404 495 536 650 567 668 l41 22 1426 0
1427 0 44 -22z"/>
<path d="M2476 3390 c-42 -13 -95 -68 -107 -112 -7 -27 -6 -51 1 -80 10 -37
51 -82 308 -340 l296 -298 -301 -302 c-291 -292 -301 -305 -308 -349 -17 -118
91 -214 202 -179 29 10 105 79 336 308 l297 297 298 -297 c230 -229 306 -298
335 -308 111 -35 219 61 202 179 -7 44 -17 57 -308 349 l-301 302 301 303
c291 291 301 304 308 348 13 89 -44 168 -132 185 -74 14 -81 8 -400 -309
l-303 -302 -297 297 c-249 247 -305 298 -338 307 -46 12 -49 12 -89 1z"/>
</g>
</svg>
