<?xml version="1.0" standalone="no"?>
<!DOCTYPE svg PUBLIC "-//W3C//DTD SVG 20010904//EN"
 "http://www.w3.org/TR/2001/REC-SVG-20010904/DTD/svg10.dtd">
<svg version="1.0" xmlns="http://www.w3.org/2000/svg"
 width="512.000000pt" height="512.000000pt" viewBox="0 0 512.000000 512.000000"
 preserveAspectRatio="xMidYMid meet">

<g transform="translate(0.000000,512.000000) scale(0.100000,-0.100000)"
fill="#000000" stroke="none">
<path d="M1695 5101 c-51 -23 -101 -79 -114 -128 -7 -25 -11 -278 -11 -730 l0
-693 -692 0 c-458 0 -706 -4 -731 -11 -21 -6 -56 -26 -77 -45 -76 -69 -71 69
-68 -1741 l3 -1621 30 -43 c17 -23 48 -52 70 -63 l40 -21 2415 0 2415 0 40 21
c22 11 54 40 70 63 l30 43 0 1248 0 1248 -30 43 c-16 23 -50 53 -74 66 l-44
23 -708 0 -709 0 -2 1108 c-3 1221 2 1131 -65 1194 -63 60 -25 58 -925 58
-774 0 -825 -2 -863 -19z m1455 -2541 l0 -2160 -590 0 -590 0 0 2160 0 2160
590 0 590 0 0 -2160z m-1580 -785 l0 -1375 -585 0 -585 0 0 1375 0 1375 585 0
585 0 0 -1375z m3150 -395 l0 -980 -585 0 -585 0 0 980 0 980 585 0 585 0 0
-980z"/>
</g>
</svg>
