<?xml version="1.0" standalone="no"?>
<!DOCTYPE svg PUBLIC "-//W3C//DTD SVG 20010904//EN"
 "http://www.w3.org/TR/2001/REC-SVG-20010904/DTD/svg10.dtd">
<svg version="1.0" xmlns="http://www.w3.org/2000/svg"
 width="512.000000pt" height="512.000000pt" viewBox="0 0 512.000000 512.000000"
 preserveAspectRatio="xMidYMid meet">

<g transform="translate(0.000000,512.000000) scale(0.100000,-0.100000)"
fill="#000000" stroke="none">
<path d="M1957 5109 c-144 -34 -263 -164 -287 -315 -6 -33 -10 -313 -10 -646
l0 -587 -28 10 c-18 6 -255 9 -628 7 l-599 -3 -56 -27 c-76 -38 -146 -109
-183 -188 l-31 -65 -3 -1598 c-3 -1766 -7 -1636 61 -1677 31 -20 69 -20 2367
-20 2298 0 2336 0 2367 20 67 41 64 -21 61 1037 l-3 958 -31 65 c-37 79 -107
150 -183 188 l-56 27 -599 3 c-373 2 -610 -1 -628 -7 l-28 -10 0 1227 c0 749
-4 1250 -10 1286 -20 126 -102 233 -220 290 l-65 31 -585 2 c-322 1 -602 -3
-623 -8z m1201 -283 l37 -34 3 -2266 2 -2266 -640 0 -640 0 0 2250 c0 2458 -4
2282 56 2329 26 21 34 21 585 21 l559 0 38 -34z m-1574 -1510 c18 -7 42 -26
54 -41 l22 -28 0 -1493 0 -1494 -640 0 -640 0 2 1489 c3 1489 3 1490 24 1518
47 64 35 63 617 63 426 0 534 -3 561 -14z m3075 -1284 c19 -9 44 -30 55 -45
21 -28 21 -37 24 -878 l2 -849 -640 0 -640 0 0 854 0 853 22 28 c43 54 40 54
613 55 485 0 533 -2 564 -18z"/>
</g>
</svg>
